<svg width="21" height="20" viewBox="0 0 21 20" fill="none" xmlns="http://www.w3.org/2000/svg">
<path d="M20.1771 8.45361C20.6905 8.45361 20.9472 8.75798 20.9472 9.36672C20.9472 9.85763 20.8035 10.3387 20.516 10.81C20.249 11.2617 19.8793 11.6348 19.407 11.9293C18.9347 12.2239 18.4315 12.3711 17.8976 12.3711C17.3225 12.3711 16.5832 12.1649 15.6796 11.7526C15.31 14.4428 14.3653 16.4948 12.8456 17.9087C11.3464 19.3029 9.4776 20 7.23912 20C5.84264 20 4.58991 19.6858 3.48094 19.0574C2.3925 18.4094 1.54024 17.5552 0.924145 16.4948C0.308049 15.4345 0 14.2857 0 13.0486C0 12.5184 0.0616088 11.9882 0.184828 11.458C0.431266 10.4173 0.903607 9.47472 1.60185 8.63034C2.30009 7.78596 3.12155 7.12813 4.06623 6.65685C5.01091 6.18557 5.96586 5.94993 6.93107 5.94993C7.9579 5.94993 8.7999 6.22484 9.45707 6.77467C10.6893 5.45901 11.3054 4.31026 11.3054 3.32842C11.3054 2.95533 11.2437 2.6706 11.1205 2.47423C10.9973 2.25822 10.8227 2.06186 10.5968 1.88513C10.4326 1.72803 10.3093 1.59058 10.2272 1.47275C10.145 1.35493 10.104 1.18802 10.104 0.972019C10.104 0.677467 10.1964 0.441826 10.3812 0.265096C10.566 0.0883652 10.8022 0 11.0897 0C11.5415 0 11.9112 0.196368 12.1987 0.589103C12.4862 0.981837 12.63 1.50221 12.63 2.15022C12.63 3.24988 12.1987 4.36917 11.3362 5.5081C10.4736 6.64703 9.43653 7.71723 8.22487 8.7187C7.01322 9.70054 5.49352 10.8493 3.66577 12.1649L1.87909 13.4904C2.08446 14.5508 2.50546 15.4934 3.14209 16.3181C3.77872 17.1232 4.53857 17.7516 5.42164 18.2032C6.32525 18.6352 7.26993 18.8513 8.25568 18.8513C10.1245 18.8513 11.675 18.2229 12.9072 16.9661C14.1599 15.7094 14.9198 13.9028 15.1868 11.5464L14.6015 11.2518C13.7389 10.8198 13.051 10.5056 12.5375 10.3093C12.0241 10.0933 11.5313 9.98527 11.0589 9.98527C10.7714 9.98527 10.5352 10.0442 10.3504 10.162C10.1861 10.2798 10.104 10.4271 10.104 10.6038C10.104 10.8395 10.1861 11.1144 10.3504 11.4286C10.5147 11.782 10.5968 12.0373 10.5968 12.1944C10.5968 12.3711 10.5352 12.538 10.412 12.6951C10.2888 12.8326 10.104 12.9013 9.85753 12.9013C9.61109 12.9013 9.40572 12.8326 9.24143 12.6951C9.09768 12.538 9.0258 12.2926 9.0258 11.9588C9.0258 11.4482 9.19009 10.9573 9.51867 10.486C9.8678 10.0147 10.3093 9.64163 10.8433 9.36672C11.3978 9.07217 11.9625 8.92489 12.5375 8.92489C13.051 8.92489 13.5746 9.03289 14.1086 9.2489C14.6631 9.44526 15.3408 9.73981 16.1417 10.1325C16.7989 10.4664 17.3636 10.7315 17.836 10.9278C18.3083 11.1046 18.7396 11.1929 19.1298 11.1929C19.3967 11.1929 19.6124 11.1438 19.7767 11.0457C19.9615 10.9278 20.0539 10.7904 20.0539 10.6333C20.0539 10.4566 19.9512 10.2307 19.7459 9.95582C19.6226 9.79872 19.5302 9.66127 19.4686 9.54345C19.407 9.42563 19.3762 9.28817 19.3762 9.13107C19.3762 8.67943 19.6432 8.45361 20.1771 8.45361ZM1.87909 10.5155C1.77641 11.1438 1.72507 11.674 1.72507 12.106C1.72507 12.322 1.7456 12.6264 1.78668 13.0191C2.34116 12.5871 2.91618 12.1551 3.51174 11.7231C5.38057 10.3486 6.83866 9.20962 7.88602 8.30633C7.37261 7.26559 6.53061 6.74521 5.36003 6.74521C4.5591 6.74521 3.84033 7.10849 3.2037 7.83505C2.5876 8.54197 2.14607 9.43545 1.87909 10.5155Z" fill="#BAE249"/>
</svg>
